<svg width="25" height="27" viewBox="0 0 25 27" fill="none" xmlns="http://www.w3.org/2000/svg">
<path d="M23.903 11.3218C24.0106 10.6878 24.0778 9.99273 24.0947 9.21327C24.0882 5.87102 22.3698 4.68838 22.0391 4.13396C22.5261 1.60158 21.9585 0.449682 21.6945 0.0553549C20.7207 -0.266425 18.3068 0.885867 16.9878 1.69703C14.8374 1.11095 10.2928 1.16816 8.58853 1.84872C5.44406 -0.247583 3.78093 0.0720531 3.78093 0.0720531C3.78093 0.0720531 2.70573 1.86711 3.4967 4.49319C2.46209 5.72068 1.69094 6.58854 1.69094 8.89053C1.69094 9.44185 1.72772 9.96283 1.79013 10.4641C2.68113 14.8258 6.39329 16.7075 10.0397 17.032C9.49098 17.4202 8.83223 18.1548 8.7411 19.006C8.05162 19.421 6.66474 19.5582 5.58627 19.2425C4.07517 18.798 3.4967 16.012 1.23378 16.4094C0.744137 16.4947 0.841448 16.7954 1.26547 17.0517C1.95488 17.4681 2.60418 17.9856 3.10467 19.093C3.48906 19.9433 4.29754 21.4614 6.85366 21.4614C7.86839 21.4614 8.57913 21.3497 8.57913 21.3497C8.57913 21.3497 8.59846 23.5163 8.59846 24.3613C8.59846 25.3338 7.18886 25.6068 7.18886 26.0734C7.18886 26.2589 7.65541 26.2765 8.03035 26.2765C8.77133 26.2765 10.313 25.7019 10.313 24.6911C10.313 23.888 10.3268 21.189 10.3268 20.7163C10.3268 19.6835 10.9212 19.3547 10.9212 19.3547C10.9212 19.3547 10.994 24.8678 10.7782 25.6069C10.5251 26.4761 10.0666 26.3526 10.0666 26.7394C10.0666 27.3167 11.92 26.8806 12.5348 25.617C13.0104 24.63 12.7974 19.2236 12.7974 19.2236L13.2932 19.2136C13.2932 19.2136 13.2989 21.6897 13.2818 22.8209C13.264 23.9925 13.1341 25.4737 13.8816 26.1728C14.3722 26.6325 15.8752 27.4393 15.8752 26.702C15.8752 26.2748 14.8227 25.9217 14.8227 24.7641V19.4315C15.4621 19.4315 15.5943 21.1843 15.5943 21.1843L15.8248 24.4409C15.8248 24.4409 15.6717 25.6292 17.2036 26.1251C17.7444 26.3015 18.9012 26.3494 18.9555 26.0534C19.0098 25.7567 17.5625 25.3179 17.5487 24.3982C17.5413 23.838 17.5757 23.5101 17.5757 21.0735C17.5757 18.6383 17.2243 17.7374 15.9999 17.0195C19.5506 16.6803 23.2386 15.2039 23.903 11.3218Z" fill="url(#paint0_linear)"/>
<defs>
<linearGradient id="paint0_linear" x1="12.5" y1="3.69549e-05" x2="12.5" y2="27" gradientUnits="userSpaceOnUse">
<stop offset="0.46875" stop-color="#FBFBFB" stop-opacity="0.53125"/>
<stop offset="0.9998" stop-color="#FEFEFF"/>
<stop offset="0.9999" stop-color="#33BBD9" stop-opacity="0.515625"/>
<stop offset="1" stop-color="#FFFEFE" stop-opacity="0"/>
</linearGradient>
</defs>
</svg>
